<svg width="127" height="61" viewBox="0 0 127 61" fill="none" xmlns="http://www.w3.org/2000/svg">
<path d="M77.9107 38.6739C77.3322 38.7563 75.1835 39.0862 71.4646 39.6634L65.0185 40.7766L64.1508 35.3342L74.9356 33.6026C75.0182 33.6026 75.0595 33.5201 75.0595 33.3552L74.3158 28.1602C74.2331 28.0777 74.1505 28.0365 74.0678 28.0365C74.0678 27.954 74.0265 27.9128 73.9439 27.9128L63.2831 29.6445L62.5393 24.6969L74.9356 22.7178C75.0182 22.7178 75.0595 22.7178 75.0595 22.7178C75.1422 22.6353 75.1835 22.5529 75.1835 22.4704L74.3158 16.7807C74.2331 16.6982 74.1505 16.657 74.0678 16.657L53.7379 19.1308C53.7379 19.1308 53.6966 19.172 53.614 19.2545C53.5313 19.3369 53.5313 19.4194 53.614 19.5019L59.0683 47.7033C59.0683 47.8682 59.151 47.9507 59.3163 47.9507L78.9024 44.8584C78.985 44.7759 79.0264 44.7347 79.0264 44.7347C79.109 44.6522 79.1503 44.5698 79.1503 44.4873L78.1586 38.9213C78.1586 38.7563 78.1173 38.6739 78.0347 38.6739C77.952 38.6739 77.9107 38.6739 77.9107 38.6739ZM100.844 40.2818C100.265 40.2818 98.034 40.2818 94.1498 40.2818H87.4558V18.1413C87.4558 18.0588 87.3732 17.9763 87.2079 17.8939H80.7618C80.5965 17.9763 80.4726 18.0588 80.3899 18.1413V46.219C80.4726 46.3839 80.5965 46.5076 80.7618 46.5901H100.844C101.009 46.5076 101.092 46.3839 101.092 46.219V40.5292C101.092 40.4468 101.05 40.4055 100.968 40.4055C100.885 40.3231 100.844 40.2818 100.844 40.2818ZM127 19.9966C126.917 19.9966 126.835 19.9554 126.752 19.8729L107.662 16.4096C107.497 16.4096 107.414 16.4508 107.414 16.5333L102.207 44.2399C102.207 44.2399 102.207 44.2812 102.207 44.3636C102.29 44.4461 102.373 44.4873 102.455 44.4873L121.918 48.0743C122.083 48.0743 122.165 48.0331 122.165 47.9507L123.281 42.2609C123.281 42.1784 123.24 42.1372 123.157 42.1372C123.157 42.0547 123.116 42.0135 123.033 42.0135L110.265 39.6634L111.257 34.221L121.918 36.2001C122 36.2001 122.041 36.2001 122.041 36.2001C122.124 36.1176 122.165 36.0764 122.165 36.0764L123.157 30.8814C123.157 30.7989 123.116 30.7577 123.033 30.7577C123.033 30.6752 122.992 30.5928 122.909 30.5103L112.248 28.5313L113.24 23.7073L125.636 26.0574C125.802 26.0574 125.926 25.975 126.008 25.8101L127 20.244C127 20.1615 127 20.1203 127 20.1203C127 20.0378 127 19.9966 127 19.9966ZM48.9034 10.1014C47.7464 7.95742 46.2175 6.10206 44.3167 4.53532C42.4986 2.88611 40.4326 1.64921 38.1186 0.824603C35.8046 0 33.3667 -0.206151 30.8048 0.206151L12.4583 4.16424C10.0617 4.57655 8.69806 5.40115 8.3675 6.63805C8.03693 7.7925 8.28485 10.0602 9.11127 13.441L9.85505 16.657L4.52465 17.028C2.4586 17.193 1.13633 18.1825 0.557833 19.9966C0.0619815 21.8107 -0.103302 23.3363 0.0619815 24.5732C0.309907 25.8101 0.929722 27.2119 1.92143 28.7786C2.99577 30.3454 4.48333 31.0051 6.38409 30.7577L12.7062 29.1497L19.1523 57.4748C19.6481 59.4539 20.2679 60.5671 21.0117 60.8145C21.7555 61.0618 22.6646 61.0618 23.7389 60.8145C24.9785 60.732 25.9702 60.4434 26.714 59.9486C27.4578 59.3714 27.7884 58.1345 27.7057 56.2379L25.7223 40.2818L36.755 38.6739C39.3169 38.344 41.5896 37.4782 43.573 36.0764C45.5564 34.6745 47.1679 32.9841 48.4075 31.0051C49.6471 28.9436 50.5149 26.7171 51.0107 24.3258C51.5892 21.852 51.6719 19.4194 51.2587 17.028C50.9281 14.5542 50.143 12.2454 48.9034 10.1014ZM37.8707 24.8205C36.9616 26.3048 35.7633 27.1294 34.2757 27.2944L24.1108 28.7786L23.7389 26.4285L30.8048 24.5732C31.8791 24.4082 32.7055 23.831 33.284 22.8415C33.8625 21.7695 34.0691 20.6975 33.9039 19.6255C33.7386 18.4711 33.2427 17.4816 32.4163 16.657C31.6725 15.8324 30.7635 15.4613 29.6891 15.5438L22.2513 15.9148L21.7555 13.3173L31.5486 11.8331C32.2923 11.7506 33.0361 11.8331 33.7799 12.0804C34.5237 12.2454 35.2261 12.6164 35.8873 13.1936C36.5484 13.6884 37.1269 14.3893 37.6227 15.2964C38.1186 16.2034 38.4492 17.3579 38.6144 18.7597C38.945 21.316 38.6971 23.3363 37.8707 24.8205Z" fill="white"/>
</svg>
